<svg width="1440" height="763" viewBox="0 0 1440 763" fill="none" xmlns="http://www.w3.org/2000/svg">
<path d="M5.31276 51.7673L8.35865e-07 46.4556L71.5725 41.675L80.6201 46.4556L5.31276 51.7673Z" stroke="#0D7377" stroke-opacity="0.2" stroke-miterlimit="10"/>
<path d="M11.293 57.7135L5.32935 51.7507L80.6199 46.4389L90.7451 51.7849L11.293 57.7135Z" stroke="#0D7377" stroke-opacity="0.2" stroke-miterlimit="10"/>
<path d="M80.6199 46.4557L71.5723 41.6751L136.786 37.3057L148.901 41.6237L80.6199 46.4557Z" stroke="#0D7377" stroke-opacity="0.2" stroke-miterlimit="10"/>
<path d="M90.7456 51.7846L80.6204 46.4386L148.901 41.6237L162.37 46.4214L90.7456 51.7846Z" stroke="#0D7377" stroke-opacity="0.2" stroke-miterlimit="10"/>
<path d="M148.747 41.6412L136.633 37.3233L196.348 33.3309L210.946 37.2547L148.747 41.6412Z" stroke="#0D7377" stroke-opacity="0.2" stroke-miterlimit="10"/>
<path d="M162.214 46.4385L148.73 41.6237L210.929 37.2372L227.122 41.5894L162.214 46.4385Z" stroke="#0D7377" stroke-opacity="0.2" stroke-miterlimit="10"/>
<path d="M210.946 37.2544L196.348 33.3306L251.179 29.6637L267.85 33.2449L210.946 37.2544Z" stroke="#0D7377" stroke-opacity="0.2" stroke-miterlimit="10"/>
<path d="M227.122 41.5898L210.929 37.2376L267.817 33.2281L286.185 37.1862L227.122 41.5898Z" stroke="#0D7377" stroke-opacity="0.2" stroke-miterlimit="10"/>
<path d="M18.0432 64.4817L11.2747 57.7134L90.7284 51.7848L102.14 57.7991L18.0432 64.4817Z" stroke="#0D7377" stroke-opacity="0.2" stroke-miterlimit="10"/>
<path d="M25.7892 72.2097L18.0435 64.4648L102.124 57.7823L115.06 64.619L25.7892 72.2097Z" stroke="#0D7377" stroke-opacity="0.2" stroke-miterlimit="10"/>
<path d="M102.14 57.7992L90.7285 51.7849L162.351 46.4389L177.448 51.8192L102.14 57.7992Z" stroke="#0D7377" stroke-opacity="0.2" stroke-miterlimit="10"/>
<path d="M115.06 64.6186L102.124 57.7818L177.431 51.8018L194.428 57.8675L115.06 64.6186Z" stroke="#0D7377" stroke-opacity="0.2" stroke-miterlimit="10"/>
<path d="M177.259 51.836L162.181 46.4386L227.087 41.5895L245.113 46.4386L177.259 51.836Z" stroke="#0D7377" stroke-opacity="0.2" stroke-miterlimit="10"/>
<path d="M194.239 57.8844L177.242 51.8187L245.078 46.4213L265.263 51.853L194.239 57.8844Z" stroke="#0D7377" stroke-opacity="0.2" stroke-miterlimit="10"/>
<path d="M245.113 46.439L227.087 41.5899L286.168 37.1863L306.54 41.5556L245.113 46.439Z" stroke="#0D7377" stroke-opacity="0.2" stroke-miterlimit="10"/>
<path d="M265.263 51.8536L245.078 46.4219L306.507 41.5385L329.175 46.4219L265.263 51.8536Z" stroke="#0D7377" stroke-opacity="0.2" stroke-miterlimit="10"/>
<path d="M267.696 33.2445L251.042 29.6634L301.606 26.2879L319.94 29.5606L267.696 33.2445Z" stroke="#0D7377" stroke-opacity="0.2" stroke-miterlimit="10"/>
<path d="M286.047 37.1864L267.679 33.2454L319.905 29.5443L340.055 33.1597L286.047 37.1864Z" stroke="#0D7377" stroke-opacity="0.2" stroke-miterlimit="10"/>
<path d="M319.94 29.5615L301.606 26.2887L348.35 23.1531L368.071 26.1688L319.94 29.5615Z" stroke="#0D7377" stroke-opacity="0.2" stroke-miterlimit="10"/>
<path d="M340.055 33.1596L319.905 29.5442L368.036 26.1515L389.627 29.4413L340.055 33.1596Z" stroke="#0D7377" stroke-opacity="0.2" stroke-miterlimit="10"/>
<path d="M367.967 26.168L348.246 23.1694L391.615 20.2565L412.467 23.0324L367.967 26.168Z" stroke="#0D7377" stroke-opacity="0.2" stroke-miterlimit="10"/>
<path d="M389.506 29.4579L367.934 26.1681L412.416 23.0324L435.153 26.0481L389.506 29.4579Z" stroke="#0D7377" stroke-opacity="0.2" stroke-miterlimit="10"/>
<path d="M412.468 23.0327L391.615 20.2568L431.932 17.5667L453.71 20.1198L412.468 23.0327Z" stroke="#0D7377" stroke-opacity="0.2" stroke-miterlimit="10"/>
<path d="M435.152 26.0487L412.416 23.033L453.659 20.1201L477.338 22.8959L435.152 26.0487Z" stroke="#0D7377" stroke-opacity="0.2" stroke-miterlimit="10"/>
<path d="M306.386 41.5724L286.031 37.186L340.038 33.1593L362.261 37.1174L306.386 41.5724Z" stroke="#0D7377" stroke-opacity="0.2" stroke-miterlimit="10"/>
<path d="M329.021 46.4387L306.351 41.5554L362.228 37.1175L386.868 41.5211L329.021 46.4387Z" stroke="#0D7377" stroke-opacity="0.2" stroke-miterlimit="10"/>
<path d="M362.262 37.1176L340.038 33.1594L389.61 29.4412L413.324 33.0738L362.262 37.1176Z" stroke="#0D7377" stroke-opacity="0.2" stroke-miterlimit="10"/>
<path d="M386.868 41.5211L362.228 37.1174L413.272 33.0565L439.436 37.0489L386.868 41.5211Z" stroke="#0D7377" stroke-opacity="0.2" stroke-miterlimit="10"/>
<path d="M413.204 33.0739L389.49 29.4585L435.136 26.0487L460.033 29.3556L413.204 33.0739Z" stroke="#0D7377" stroke-opacity="0.2" stroke-miterlimit="10"/>
<path d="M439.334 37.0661L413.152 33.0738L459.981 29.3384L487.344 32.9709L439.334 37.0661Z" stroke="#0D7377" stroke-opacity="0.2" stroke-miterlimit="10"/>
<path d="M460.033 29.3551L435.136 26.0481L477.322 22.8953L503.144 25.9282L460.033 29.3551Z" stroke="#0D7377" stroke-opacity="0.2" stroke-miterlimit="10"/>
<path d="M487.345 32.9709L459.981 29.3383L503.075 25.9114L531.364 29.2355L487.345 32.9709Z" stroke="#0D7377" stroke-opacity="0.2" stroke-miterlimit="10"/>
<path d="M34.6976 81.1364L25.7705 72.2092L115.06 64.6185L129.864 72.4319L34.6976 81.1364Z" stroke="#0D7377" stroke-opacity="0.2" stroke-miterlimit="10"/>
<path d="M45.116 91.5203L34.698 81.1195L129.847 72.4151L146.949 81.445L45.116 91.5203Z" stroke="#0D7377" stroke-opacity="0.2" stroke-miterlimit="10"/>
<path d="M129.864 72.4315L115.06 64.618L194.428 57.8841L213.738 64.7722L129.864 72.4315Z" stroke="#0D7377" stroke-opacity="0.2" stroke-miterlimit="10"/>
<path d="M146.948 81.4447L129.847 72.4147L213.705 64.7555L235.826 72.6546L146.948 81.4447Z" stroke="#0D7377" stroke-opacity="0.2" stroke-miterlimit="10"/>
<path d="M213.533 64.7904L194.24 57.9022L265.263 51.8537L288.035 57.9879L213.533 64.7904Z" stroke="#0D7377" stroke-opacity="0.2" stroke-miterlimit="10"/>
<path d="M235.62 72.6721L213.516 64.773L288 57.9705L313.874 64.9272L235.62 72.6721Z" stroke="#0D7377" stroke-opacity="0.2" stroke-miterlimit="10"/>
<path d="M288.035 57.9872L265.263 51.853L329.192 46.4213L354.638 51.9044L288.035 57.9872Z" stroke="#0D7377" stroke-opacity="0.2" stroke-miterlimit="10"/>
<path d="M313.875 64.9265L288 57.9698L354.586 51.887L383.304 58.0555L313.875 64.9265Z" stroke="#0D7377" stroke-opacity="0.2" stroke-miterlimit="10"/>
<path d="M57.3845 103.823L45.0823 91.5198L146.913 81.4446L166.893 91.9996L57.3845 103.823Z" stroke="#0D7377" stroke-opacity="0.2" stroke-miterlimit="10"/>
<path d="M72.1548 118.558L57.3845 103.788L166.876 91.9652L190.521 104.439L72.1548 118.558Z" stroke="#0D7377" stroke-opacity="0.2" stroke-miterlimit="10"/>
<path d="M166.893 91.9997L146.913 81.4447L235.791 72.6546L261.373 81.7873L166.893 91.9997Z" stroke="#0D7377" stroke-opacity="0.2" stroke-miterlimit="10"/>
<path d="M190.522 104.439L166.876 91.9654L261.339 81.7531L291.273 92.4452L190.522 104.439Z" stroke="#0D7377" stroke-opacity="0.2" stroke-miterlimit="10"/>
<path d="M261.167 81.8048L235.585 72.672L313.856 64.9271L343.534 72.9118L261.167 81.8048Z" stroke="#0D7377" stroke-opacity="0.2" stroke-miterlimit="10"/>
<path d="M291.051 92.4791L261.117 81.7871L343.482 72.877L377.855 82.1297L291.051 92.4791Z" stroke="#0D7377" stroke-opacity="0.2" stroke-miterlimit="10"/>
<path d="M343.534 72.9114L313.856 64.9267L383.287 58.0557L415.963 65.0809L343.534 72.9114Z" stroke="#0D7377" stroke-opacity="0.2" stroke-miterlimit="10"/>
<path d="M377.855 82.1306L343.482 72.8778L415.895 65.0644L453.402 73.1177L377.855 82.1306Z" stroke="#0D7377" stroke-opacity="0.2" stroke-miterlimit="10"/>
<path d="M354.465 51.9045L329.038 46.4386L386.884 41.5209L414.368 46.4386L354.465 51.9045Z" stroke="#0D7377" stroke-opacity="0.2" stroke-miterlimit="10"/>
<path d="M383.133 58.0728L354.415 51.8872L414.3 46.4213L445.142 51.9215L383.133 58.0728Z" stroke="#0D7377" stroke-opacity="0.2" stroke-miterlimit="10"/>
<path d="M414.369 46.4387L386.885 41.5211L439.472 37.0489L468.515 41.4868L414.369 46.4387Z" stroke="#0D7377" stroke-opacity="0.2" stroke-miterlimit="10"/>
<path d="M445.142 51.9221L414.3 46.4219L468.446 41.47L500.865 46.4219L445.142 51.9221Z" stroke="#0D7377" stroke-opacity="0.2" stroke-miterlimit="10"/>
<path d="M468.394 41.5039L439.351 37.066L487.363 32.988L517.588 36.9975L468.394 41.5039Z" stroke="#0D7377" stroke-opacity="0.2" stroke-miterlimit="10"/>
<path d="M500.745 46.4216L468.326 41.4868L517.537 36.9804L551.086 41.4525L500.745 46.4216Z" stroke="#0D7377" stroke-opacity="0.2" stroke-miterlimit="10"/>
<path d="M517.588 36.9974L487.363 32.9879L531.381 29.2353L562.498 32.9022L517.588 36.9974Z" stroke="#0D7377" stroke-opacity="0.2" stroke-miterlimit="10"/>
<path d="M551.086 41.4523L517.536 36.9801L562.43 32.8849L596.803 36.9115L551.086 41.4523Z" stroke="#0D7377" stroke-opacity="0.2" stroke-miterlimit="10"/>
<path d="M415.774 65.0982L383.098 58.073L445.126 51.9388L479.961 58.1587L415.774 65.0982Z" stroke="#0D7377" stroke-opacity="0.2" stroke-miterlimit="10"/>
<path d="M453.213 73.1346L415.706 65.0813L479.892 58.1417L519.576 65.2355L453.213 73.1346Z" stroke="#0D7377" stroke-opacity="0.2" stroke-miterlimit="10"/>
<path d="M479.96 58.1585L445.125 51.9386L500.848 46.4212L537.241 51.9729L479.96 58.1585Z" stroke="#0D7377" stroke-opacity="0.2" stroke-miterlimit="10"/>
<path d="M519.576 65.2352L479.892 58.1414L537.172 51.9558L578.331 58.227L519.576 65.2352Z" stroke="#0D7377" stroke-opacity="0.2" stroke-miterlimit="10"/>
<path d="M537.123 51.9902L500.728 46.4386L551.07 41.4524L588.56 46.4214L537.123 51.9902Z" stroke="#0D7377" stroke-opacity="0.2" stroke-miterlimit="10"/>
<path d="M578.21 58.2443L537.035 51.973L588.474 46.4043L630.592 52.0073L578.21 58.2443Z" stroke="#0D7377" stroke-opacity="0.2" stroke-miterlimit="10"/>
<path d="M588.56 46.4212L551.069 41.4521L596.784 36.9285L634.996 41.4007L588.56 46.4212Z" stroke="#0D7377" stroke-opacity="0.2" stroke-miterlimit="10"/>
<path d="M630.592 52.0075L588.475 46.4045L634.892 41.4011L677.592 46.4045L630.592 52.0075Z" stroke="#0D7377" stroke-opacity="0.2" stroke-miterlimit="10"/>
<path d="M90.163 136.618L72.1213 118.576L190.505 104.457L218.948 119.484L90.163 136.618Z" stroke="#0D7377" stroke-opacity="0.2" stroke-miterlimit="10"/>
<path d="M112.712 159.099L90.1628 136.567L218.914 119.433L253.749 137.818L112.712 159.099Z" stroke="#0D7377" stroke-opacity="0.2" stroke-miterlimit="10"/>
<path d="M218.948 119.484L190.505 104.457L291.257 92.4457L326.759 105.125L218.948 119.484Z" stroke="#0D7377" stroke-opacity="0.2" stroke-miterlimit="10"/>
<path d="M253.749 137.818L218.914 119.433L326.707 105.091L369.477 120.358L253.749 137.818Z" stroke="#0D7377" stroke-opacity="0.2" stroke-miterlimit="10"/>
<path d="M326.537 105.16L291.034 92.48L377.855 82.1306L418.155 92.9769L326.537 105.16Z" stroke="#0D7377" stroke-opacity="0.2" stroke-miterlimit="10"/>
<path d="M369.236 120.409L326.468 105.125L418.07 92.9425L465.927 105.811L369.236 120.409Z" stroke="#0D7377" stroke-opacity="0.2" stroke-miterlimit="10"/>
<path d="M418.155 92.9767L377.855 82.1304L453.418 73.1347L496.924 82.4902L418.155 92.9767Z" stroke="#0D7377" stroke-opacity="0.2" stroke-miterlimit="10"/>
<path d="M465.926 105.81L418.07 92.9423L496.838 82.4558L547.917 93.4392L465.926 105.81Z" stroke="#0D7377" stroke-opacity="0.2" stroke-miterlimit="10"/>
<path d="M141.652 188.108L112.66 159.116L253.714 137.835L297.407 160.898L141.652 188.108Z" stroke="#0D7377" stroke-opacity="0.2" stroke-miterlimit="10"/>
<path d="M180.274 226.644L141.636 188.005L297.322 160.829L353.694 190.575L180.274 226.644Z" stroke="#0D7377" stroke-opacity="0.2" stroke-miterlimit="10"/>
<path d="M297.407 160.899L253.714 137.836L369.441 120.358L421.993 139.121L297.407 160.899Z" stroke="#0D7377" stroke-opacity="0.2" stroke-miterlimit="10"/>
<path d="M353.694 190.576L297.322 160.83L421.892 139.069L487.979 162.664L353.694 190.576Z" stroke="#0D7377" stroke-opacity="0.2" stroke-miterlimit="10"/>
<path d="M421.737 139.189L369.202 120.409L465.909 105.81L523.722 121.369L421.737 139.189Z" stroke="#0D7377" stroke-opacity="0.2" stroke-miterlimit="10"/>
<path d="M487.706 162.731L421.617 139.12L523.585 121.317L594.78 140.456L487.706 162.731Z" stroke="#0D7377" stroke-opacity="0.2" stroke-miterlimit="10"/>
<path d="M523.723 121.368L465.91 105.81L547.882 93.4387L608.693 106.512L523.723 121.368Z" stroke="#0D7377" stroke-opacity="0.2" stroke-miterlimit="10"/>
<path d="M594.78 140.457L523.585 121.317L608.556 106.479L682.15 122.294L594.78 140.457Z" stroke="#0D7377" stroke-opacity="0.2" stroke-miterlimit="10"/>
<path d="M496.735 82.5068L453.213 73.1512L519.593 65.235L565.222 73.3911L496.735 82.5068Z" stroke="#0D7377" stroke-opacity="0.2" stroke-miterlimit="10"/>
<path d="M547.711 93.4557L496.633 82.4724L565.12 73.3739L618.117 82.8322L547.711 93.4557Z" stroke="#0D7377" stroke-opacity="0.2" stroke-miterlimit="10"/>
<path d="M565.222 73.3919L519.593 65.2358L578.348 58.2448L625.297 65.39L565.222 73.3919Z" stroke="#0D7377" stroke-opacity="0.2" stroke-miterlimit="10"/>
<path d="M618.117 82.8326L565.12 73.3743L625.194 65.3724L679.22 73.6141L618.117 82.8326Z" stroke="#0D7377" stroke-opacity="0.2" stroke-miterlimit="10"/>
<path d="M625.177 65.4241L578.227 58.2618L630.608 52.0076L678.311 58.3474L625.177 65.4241Z" stroke="#0D7377" stroke-opacity="0.2" stroke-miterlimit="10"/>
<path d="M679.099 73.6483L625.075 65.3895L678.209 58.33L732.645 65.5608L679.099 73.6483Z" stroke="#0D7377" stroke-opacity="0.2" stroke-miterlimit="10"/>
<path d="M678.311 58.3471L630.609 52.0073L677.609 46.4042L725.638 52.0415L678.311 58.3471Z" stroke="#0D7377" stroke-opacity="0.2" stroke-miterlimit="10"/>
<path d="M732.645 65.5606L678.209 58.3298L725.535 52.0242L779.955 58.4154L732.645 65.5606Z" stroke="#0D7377" stroke-opacity="0.2" stroke-miterlimit="10"/>
<path d="M608.487 106.547L547.678 93.4734L618.101 82.8499L680.42 93.9703L608.487 106.547Z" stroke="#0D7377" stroke-opacity="0.2" stroke-miterlimit="10"/>
<path d="M681.927 122.328L608.35 106.512L680.266 93.9356L754.579 107.215L681.927 122.328Z" stroke="#0D7377" stroke-opacity="0.2" stroke-miterlimit="10"/>
<path d="M680.419 93.97L618.1 82.8496L679.203 73.6139L742.069 83.2094L680.419 93.97Z" stroke="#0D7377" stroke-opacity="0.2" stroke-miterlimit="10"/>
<path d="M754.579 107.215L680.266 93.9361L741.915 83.1755L815.921 94.4672L754.579 107.215Z" stroke="#0D7377" stroke-opacity="0.2" stroke-miterlimit="10"/>
<path d="M741.95 83.227L679.083 73.6487L732.645 65.5612L795.393 73.8886L741.95 83.227Z" stroke="#0D7377" stroke-opacity="0.2" stroke-miterlimit="10"/>
<path d="M815.8 94.5011L741.795 83.2094L795.239 73.871L868.319 83.5863L815.8 94.5011Z" stroke="#0D7377" stroke-opacity="0.2" stroke-miterlimit="10"/>
<path d="M795.393 73.888L732.645 65.5606L779.938 58.4154L842.153 65.7319L795.393 73.888Z" stroke="#0D7377" stroke-opacity="0.2" stroke-miterlimit="10"/>
<path d="M868.319 83.5862L795.239 73.8708L841.999 65.6976L913.759 74.1278L868.319 83.5862Z" stroke="#0D7377" stroke-opacity="0.2" stroke-miterlimit="10"/>
<path d="M234.386 280.825L180.257 226.713L353.729 190.628L429.328 230.552L234.386 280.825Z" stroke="#0D7377" stroke-opacity="0.2" stroke-miterlimit="10"/>
<path d="M315.399 361.734L234.283 280.653L429.155 230.414L535.7 286.65L315.399 361.734Z" stroke="#0D7377" stroke-opacity="0.2" stroke-miterlimit="10"/>
<path d="M429.328 230.551L353.729 190.627L488.031 162.698L573.721 193.3L429.328 230.551Z" stroke="#0D7377" stroke-opacity="0.2" stroke-miterlimit="10"/>
<path d="M535.7 286.651L429.156 230.415L573.515 193.198L688.952 234.407L535.7 286.651Z" stroke="#0D7377" stroke-opacity="0.2" stroke-miterlimit="10"/>
<path d="M573.447 193.386L487.756 162.766L594.848 140.491L684.772 164.668L573.447 193.386Z" stroke="#0D7377" stroke-opacity="0.2" stroke-miterlimit="10"/>
<path d="M688.677 234.526L573.242 193.283L684.549 164.599L801.544 196.059L688.677 234.526Z" stroke="#0D7377" stroke-opacity="0.2" stroke-miterlimit="10"/>
<path d="M684.772 164.668L594.848 140.491L682.218 122.328L773.153 141.862L684.772 164.668Z" stroke="#0D7377" stroke-opacity="0.2" stroke-miterlimit="10"/>
<path d="M801.544 196.059L684.549 164.6L772.93 141.811L888.057 166.553L801.544 196.059Z" stroke="#0D7377" stroke-opacity="0.2" stroke-miterlimit="10"/>
<path d="M450.488 496.944L315.313 361.769L535.631 286.667L697.143 371.947L450.488 496.944Z" stroke="#0D7377" stroke-opacity="0.2" stroke-miterlimit="10"/>
<path d="M719.931 766.147L450.145 496.43L696.697 371.638L970.166 515.998L719.931 766.147Z" stroke="#0D7377" stroke-opacity="0.2" stroke-miterlimit="10"/>
<path d="M697.143 371.946L535.631 286.667L688.918 234.423L852.948 292.99L697.143 371.946Z" stroke="#0D7377" stroke-opacity="0.2" stroke-miterlimit="10"/>
<path d="M970.166 515.997L696.698 371.637L852.503 292.783L1103.73 382.466L970.166 515.997Z" stroke="#0D7377" stroke-opacity="0.2" stroke-miterlimit="10"/>
<path d="M852.692 293.162L688.627 234.544L801.51 196.059L960.127 238.725L852.692 293.162Z" stroke="#0D7377" stroke-opacity="0.2" stroke-miterlimit="10"/>
<path d="M1103.58 382.758L852.247 292.972L959.68 238.586L1186.71 299.637L1103.58 382.758Z" stroke="#0D7377" stroke-opacity="0.2" stroke-miterlimit="10"/>
<path d="M960.127 238.724L801.511 196.058L888.041 166.57L1038.62 198.937L960.127 238.724Z" stroke="#0D7377" stroke-opacity="0.2" stroke-miterlimit="10"/>
<path d="M1186.71 299.637L959.68 238.586L1038.21 198.834L1243.4 242.938L1186.71 299.637Z" stroke="#0D7377" stroke-opacity="0.2" stroke-miterlimit="10"/>
<path d="M772.93 141.913L681.996 122.362L754.664 107.249L844.861 123.356L772.93 141.913Z" stroke="#0D7377" stroke-opacity="0.2" stroke-miterlimit="10"/>
<path d="M887.835 166.621L772.706 141.844L844.621 123.305L956.321 143.266L887.835 166.621Z" stroke="#0D7377" stroke-opacity="0.2" stroke-miterlimit="10"/>
<path d="M844.86 123.357L754.664 107.25L816.006 94.4845L904.489 107.987L844.86 123.357Z" stroke="#0D7377" stroke-opacity="0.2" stroke-miterlimit="10"/>
<path d="M956.321 143.267L844.621 123.305L904.266 107.935L1011.84 124.35L956.321 143.267Z" stroke="#0D7377" stroke-opacity="0.2" stroke-miterlimit="10"/>
<path d="M904.387 108.02L815.886 94.5181L868.404 83.5862L954.66 95.0493L904.387 108.02Z" stroke="#0D7377" stroke-opacity="0.2" stroke-miterlimit="10"/>
<path d="M1011.75 124.385L904.164 107.97L954.437 95.0156L1057.69 108.723L1011.75 124.385Z" stroke="#0D7377" stroke-opacity="0.2" stroke-miterlimit="10"/>
<path d="M954.66 95.0497L868.404 83.5866L913.845 74.1453L997.582 83.9806L954.66 95.0497Z" stroke="#0D7377" stroke-opacity="0.2" stroke-miterlimit="10"/>
<path d="M1057.69 108.723L954.438 95.0156L997.376 83.9466L1096.33 95.5639L1057.69 108.723Z" stroke="#0D7377" stroke-opacity="0.2" stroke-miterlimit="10"/>
<path d="M1038.4 199.006L887.801 166.621L956.288 143.284L1098.3 168.66L1038.4 199.006Z" stroke="#0D7377" stroke-opacity="0.2" stroke-miterlimit="10"/>
<path d="M1243.21 243.042L1037.99 198.903L1097.92 168.574L1284.37 201.884L1243.21 243.042Z" stroke="#0D7377" stroke-opacity="0.2" stroke-miterlimit="10"/>
<path d="M1098.3 168.66L956.288 143.283L1011.82 124.349L1145.49 144.74L1098.3 168.66Z" stroke="#0D7377" stroke-opacity="0.2" stroke-miterlimit="10"/>
<path d="M1284.37 201.885L1097.92 168.575L1145.13 144.672L1315.6 170.665L1284.37 201.885Z" stroke="#0D7377" stroke-opacity="0.2" stroke-miterlimit="10"/>
<path d="M1145.44 144.792L1011.73 124.401L1057.67 108.74L1183.6 125.464L1145.44 144.792Z" stroke="#0D7377" stroke-opacity="0.2" stroke-miterlimit="10"/>
<path d="M1315.6 170.751L1145.08 144.74L1183.25 125.412L1340.11 146.231L1315.6 170.751Z" stroke="#0D7377" stroke-opacity="0.2" stroke-miterlimit="10"/>
<path d="M1183.6 125.464L1057.67 108.74L1096.31 95.5637L1215.07 109.511L1183.6 125.464Z" stroke="#0D7377" stroke-opacity="0.2" stroke-miterlimit="10"/>
<path d="M1340.1 146.231L1183.25 125.412L1214.75 109.459L1359.84 126.491L1340.1 146.231Z" stroke="#0D7377" stroke-opacity="0.2" stroke-miterlimit="10"/>
<path d="M453.728 20.1194L431.95 17.5663L469.542 15.0475L492.075 17.4121L453.728 20.1194Z" stroke="#0D7377" stroke-opacity="0.2" stroke-miterlimit="10"/>
<path d="M477.338 22.8958L453.676 20.12L492.023 17.4127L516.423 19.9658L477.338 22.8958Z" stroke="#0D7377" stroke-opacity="0.2" stroke-miterlimit="10"/>
<path d="M492.075 17.4126L469.542 15.0481L504.685 12.7006L527.8 14.8938L492.075 17.4126Z" stroke="#0D7377" stroke-opacity="0.2" stroke-miterlimit="10"/>
<path d="M516.424 19.9654L492.023 17.4123L527.749 14.8935L552.731 17.2581L516.424 19.9654Z" stroke="#0D7377" stroke-opacity="0.2" stroke-miterlimit="10"/>
<path d="M527.715 14.8935L504.6 12.7003L537.516 10.507L561.111 12.546L527.715 14.8935Z" stroke="#0D7377" stroke-opacity="0.2" stroke-miterlimit="10"/>
<path d="M552.663 17.258L527.68 14.8935L561.059 12.546L586.504 14.7392L552.663 17.258Z" stroke="#0D7377" stroke-opacity="0.2" stroke-miterlimit="10"/>
<path d="M561.111 12.5461L537.516 10.5071L568.41 8.43383L592.382 10.3358L561.111 12.5461Z" stroke="#0D7377" stroke-opacity="0.2" stroke-miterlimit="10"/>
<path d="M586.503 14.739L561.059 12.5458L592.33 10.3354L618.101 12.3745L586.503 14.739Z" stroke="#0D7377" stroke-opacity="0.2" stroke-miterlimit="10"/>
<path d="M503.144 25.928L477.338 22.8952L516.407 19.9651L542.947 22.7581L503.144 25.928Z" stroke="#0D7377" stroke-opacity="0.2" stroke-miterlimit="10"/>
<path d="M531.364 29.235L503.092 25.9108L542.897 22.758L571.853 25.7909L531.364 29.235Z" stroke="#0D7377" stroke-opacity="0.2" stroke-miterlimit="10"/>
<path d="M542.947 22.758L516.407 19.9651L552.731 17.2578L579.822 19.828L542.947 22.758Z" stroke="#0D7377" stroke-opacity="0.2" stroke-miterlimit="10"/>
<path d="M571.854 25.791L542.897 22.7582L579.77 19.8281L609.242 22.6211L571.854 25.791Z" stroke="#0D7377" stroke-opacity="0.2" stroke-miterlimit="10"/>
<path d="M579.736 19.8457L552.646 17.2755L586.487 14.7395L613.987 17.1212L579.736 19.8457Z" stroke="#0D7377" stroke-opacity="0.2" stroke-miterlimit="10"/>
<path d="M609.157 22.6215L579.685 19.8285L613.937 17.1041L643.768 19.6914L609.157 22.6215Z" stroke="#0D7377" stroke-opacity="0.2" stroke-miterlimit="10"/>
<path d="M613.987 17.1213L586.487 14.7396L618.1 12.375L645.892 14.5854L613.987 17.1213Z" stroke="#0D7377" stroke-opacity="0.2" stroke-miterlimit="10"/>
<path d="M643.767 19.6912L613.937 17.1039L645.824 14.568L675.895 16.9497L643.767 19.6912Z" stroke="#0D7377" stroke-opacity="0.2" stroke-miterlimit="10"/>
<path d="M592.295 10.3529L568.324 8.45094L597.385 6.49758L621.629 8.2796L592.295 10.3529Z" stroke="#0D7377" stroke-opacity="0.2" stroke-miterlimit="10"/>
<path d="M618.015 12.3745L592.244 10.3355L621.579 8.2622L647.606 10.1641L618.015 12.3745Z" stroke="#0D7377" stroke-opacity="0.2" stroke-miterlimit="10"/>
<path d="M621.63 8.27994L597.385 6.49792L624.749 4.66452L649.217 6.32658L621.63 8.27994Z" stroke="#0D7377" stroke-opacity="0.2" stroke-miterlimit="10"/>
<path d="M647.606 10.1642L621.579 8.26222L649.165 6.32601L675.364 8.09088L647.606 10.1642Z" stroke="#0D7377" stroke-opacity="0.2" stroke-miterlimit="10"/>
<path d="M649.166 6.32667L624.697 4.68174L650.536 2.95114L675.142 4.49324L649.166 6.32667Z" stroke="#0D7377" stroke-opacity="0.2" stroke-miterlimit="10"/>
<path d="M675.296 8.10834L649.097 6.32634L675.09 4.49292L701.393 6.15498L675.296 8.10834Z" stroke="#0D7377" stroke-opacity="0.2" stroke-miterlimit="10"/>
<path d="M675.142 4.49283L650.536 2.95072L674.953 1.3229L699.661 2.76223L675.142 4.49283Z" stroke="#0D7377" stroke-opacity="0.2" stroke-miterlimit="10"/>
<path d="M701.393 6.15459L675.09 4.49253L699.611 2.76193L725.946 4.32116L701.393 6.15459Z" stroke="#0D7377" stroke-opacity="0.2" stroke-miterlimit="10"/>
<path d="M645.807 14.5855L618.015 12.3752L647.589 10.1648L675.604 12.2209L645.807 14.5855Z" stroke="#0D7377" stroke-opacity="0.2" stroke-miterlimit="10"/>
<path d="M675.81 16.9671L645.739 14.5854L675.535 12.2037L705.727 14.4141L675.81 16.9671Z" stroke="#0D7377" stroke-opacity="0.2" stroke-miterlimit="10"/>
<path d="M675.604 12.221L647.589 10.1648L675.348 8.09155L703.466 9.99349L675.604 12.221Z" stroke="#0D7377" stroke-opacity="0.2" stroke-miterlimit="10"/>
<path d="M705.727 14.4139L675.535 12.2035L703.397 9.99316L733.656 12.0493L705.727 14.4139Z" stroke="#0D7377" stroke-opacity="0.2" stroke-miterlimit="10"/>
<path d="M703.414 10.0101L675.296 8.10811L701.374 6.15475L729.561 7.93674L703.414 10.0101Z" stroke="#0D7377" stroke-opacity="0.2" stroke-miterlimit="10"/>
<path d="M733.606 12.0494L703.345 9.99326L729.493 7.91995L759.736 9.82189L733.606 12.0494Z" stroke="#0D7377" stroke-opacity="0.2" stroke-miterlimit="10"/>
<path d="M729.561 7.93704L701.374 6.15505L725.945 4.32162L754.115 5.98368L729.561 7.93704Z" stroke="#0D7377" stroke-opacity="0.2" stroke-miterlimit="10"/>
<path d="M759.736 9.82179L729.493 7.91985L754.047 5.96649L784.238 7.74848L759.736 9.82179Z" stroke="#0D7377" stroke-opacity="0.2" stroke-miterlimit="10"/>
<path d="M562.498 32.8848L531.4 29.2351L571.889 25.791L603.638 29.1323L562.498 32.8848Z" stroke="#0D7377" stroke-opacity="0.2" stroke-miterlimit="10"/>
<path d="M596.819 36.9122L562.429 32.8856L603.553 29.1159L638.491 32.7999L596.819 36.9122Z" stroke="#0D7377" stroke-opacity="0.2" stroke-miterlimit="10"/>
<path d="M603.638 29.1328L571.889 25.7915L609.259 22.6216L641.455 25.6716L603.638 29.1328Z" stroke="#0D7377" stroke-opacity="0.2" stroke-miterlimit="10"/>
<path d="M638.491 32.7993L603.552 29.1153L641.369 25.6713L676.649 29.0125L638.491 32.7993Z" stroke="#0D7377" stroke-opacity="0.2" stroke-miterlimit="10"/>
<path d="M641.369 25.6888L609.173 22.6389L643.786 19.6917L676.255 22.5018L641.369 25.6888Z" stroke="#0D7377" stroke-opacity="0.2" stroke-miterlimit="10"/>
<path d="M676.581 29.03L641.301 25.6716L676.188 22.4846L711.655 25.5517L676.581 29.03Z" stroke="#0D7377" stroke-opacity="0.2" stroke-miterlimit="10"/>
<path d="M676.255 22.5017L643.786 19.6916L675.93 16.95L708.555 19.5374L676.255 22.5017Z" stroke="#0D7377" stroke-opacity="0.2" stroke-miterlimit="10"/>
<path d="M711.655 25.5511L676.188 22.484L708.486 19.5368L744.005 22.3469L711.655 25.5511Z" stroke="#0D7377" stroke-opacity="0.2" stroke-miterlimit="10"/>
<path d="M634.996 41.4013L596.803 36.912L638.473 32.7997L677.112 36.8435L634.996 41.4013Z" stroke="#0D7377" stroke-opacity="0.2" stroke-miterlimit="10"/>
<path d="M677.592 46.4042L634.909 41.3837L677.026 36.843L719.983 41.3494L677.592 46.4042Z" stroke="#0D7377" stroke-opacity="0.2" stroke-miterlimit="10"/>
<path d="M677.112 36.8434L638.473 32.7996L676.65 29.0128L715.511 32.6968L677.112 36.8434Z" stroke="#0D7377" stroke-opacity="0.2" stroke-miterlimit="10"/>
<path d="M719.983 41.3496L677.026 36.8432L715.408 32.6966L758.416 36.7746L719.983 41.3496Z" stroke="#0D7377" stroke-opacity="0.2" stroke-miterlimit="10"/>
<path d="M715.425 32.7138L676.564 29.0298L711.655 25.5515L750.568 28.9099L715.425 32.7138Z" stroke="#0D7377" stroke-opacity="0.2" stroke-miterlimit="10"/>
<path d="M758.331 36.7748L715.34 32.6968L750.466 28.91L793.336 32.6111L758.331 36.7748Z" stroke="#0D7377" stroke-opacity="0.2" stroke-miterlimit="10"/>
<path d="M750.568 28.9098L711.655 25.5514L744.005 22.3472L782.833 25.4315L750.568 28.9098Z" stroke="#0D7377" stroke-opacity="0.2" stroke-miterlimit="10"/>
<path d="M793.336 32.611L750.466 28.9099L782.747 25.4145L825.361 28.79L793.336 32.611Z" stroke="#0D7377" stroke-opacity="0.2" stroke-miterlimit="10"/>
<path d="M708.469 19.5543L675.845 16.967L705.762 14.4139L738.455 16.8128L708.469 19.5543Z" stroke="#0D7377" stroke-opacity="0.2" stroke-miterlimit="10"/>
<path d="M743.92 22.3639L708.401 19.5367L738.368 16.7951L773.856 19.3996L743.92 22.3639Z" stroke="#0D7377" stroke-opacity="0.2" stroke-miterlimit="10"/>
<path d="M738.455 16.8122L705.762 14.4134L733.691 12.0488L766.349 14.2592L738.455 16.8122Z" stroke="#0D7377" stroke-opacity="0.2" stroke-miterlimit="10"/>
<path d="M773.855 19.3997L738.368 16.7952L766.28 14.2593L801.631 16.641L773.855 19.3997Z" stroke="#0D7377" stroke-opacity="0.2" stroke-miterlimit="10"/>
<path d="M766.299 14.2599L733.639 12.0496L759.77 9.83917L792.342 11.8782L766.299 14.2599Z" stroke="#0D7377" stroke-opacity="0.2" stroke-miterlimit="10"/>
<path d="M801.579 16.6587L766.23 14.2598L792.257 11.8781L827.418 14.0885L801.579 16.6587Z" stroke="#0D7377" stroke-opacity="0.2" stroke-miterlimit="10"/>
<path d="M792.342 11.8778L759.77 9.83879L784.255 7.74835L816.674 9.66744L792.342 11.8778Z" stroke="#0D7377" stroke-opacity="0.2" stroke-miterlimit="10"/>
<path d="M827.418 14.0879L792.257 11.8775L816.605 9.64999L851.509 11.7062L827.418 14.0879Z" stroke="#0D7377" stroke-opacity="0.2" stroke-miterlimit="10"/>
<path d="M782.747 25.4312L743.92 22.364L773.855 19.3997L812.494 22.2098L782.747 25.4312Z" stroke="#0D7377" stroke-opacity="0.2" stroke-miterlimit="10"/>
<path d="M825.276 28.8068L782.662 25.4312L812.409 22.2099L854.68 25.2941L825.276 28.8068Z" stroke="#0D7377" stroke-opacity="0.2" stroke-miterlimit="10"/>
<path d="M812.494 22.2099L773.856 19.3998L801.613 16.6411L840.012 19.2456L812.494 22.2099Z" stroke="#0D7377" stroke-opacity="0.2" stroke-miterlimit="10"/>
<path d="M854.68 25.2948L812.408 22.2105L839.926 19.2291L881.769 22.0734L854.68 25.2948Z" stroke="#0D7377" stroke-opacity="0.2" stroke-miterlimit="10"/>
<path d="M839.96 19.2462L801.562 16.6589L827.402 14.0886L865.474 16.4875L839.96 19.2462Z" stroke="#0D7377" stroke-opacity="0.2" stroke-miterlimit="10"/>
<path d="M881.717 22.073L839.874 19.2458L865.389 16.4871L906.751 19.0916L881.717 22.073Z" stroke="#0D7377" stroke-opacity="0.2" stroke-miterlimit="10"/>
<path d="M865.474 16.4871L827.401 14.0882L851.509 11.7065L889.205 13.934L865.474 16.4871Z" stroke="#0D7377" stroke-opacity="0.2" stroke-miterlimit="10"/>
<path d="M906.751 19.0917L865.389 16.4872L889.12 13.917L929.969 16.333L906.751 19.0917Z" stroke="#0D7377" stroke-opacity="0.2" stroke-miterlimit="10"/>
<path d="M725.654 52.0413L677.626 46.404L720 41.3493L768.062 46.404L725.654 52.0413Z" stroke="#0D7377" stroke-opacity="0.2" stroke-miterlimit="10"/>
<path d="M779.955 58.4155L725.535 52.0243L767.944 46.3869L822.037 52.0585L779.955 58.4155Z" stroke="#0D7377" stroke-opacity="0.2" stroke-miterlimit="10"/>
<path d="M768.062 46.4042L720 41.3495L758.434 36.7745L806.291 41.3152L768.062 46.4042Z" stroke="#0D7377" stroke-opacity="0.2" stroke-miterlimit="10"/>
<path d="M822.036 52.0589L767.943 46.3874L806.17 41.2984L859.716 46.3874L822.036 52.0589Z" stroke="#0D7377" stroke-opacity="0.2" stroke-miterlimit="10"/>
<path d="M806.205 41.332L758.365 36.7914L793.371 32.6105L840.851 36.7228L806.205 41.332Z" stroke="#0D7377" stroke-opacity="0.2" stroke-miterlimit="10"/>
<path d="M859.647 46.3871L806.102 41.3152L840.731 36.706L893.609 41.2638L859.647 46.3871Z" stroke="#0D7377" stroke-opacity="0.2" stroke-miterlimit="10"/>
<path d="M840.851 36.7227L793.371 32.6104L825.378 28.7893L872.38 32.5247L840.851 36.7227Z" stroke="#0D7377" stroke-opacity="0.2" stroke-miterlimit="10"/>
<path d="M893.609 41.2641L840.731 36.7063L872.276 32.5083L924.331 36.6378L893.609 41.2641Z" stroke="#0D7377" stroke-opacity="0.2" stroke-miterlimit="10"/>
<path d="M842.153 65.7148L779.955 58.4155L822.037 52.0585L883.397 58.5182L842.153 65.7148Z" stroke="#0D7377" stroke-opacity="0.2" stroke-miterlimit="10"/>
<path d="M913.759 74.1284L841.999 65.6981L883.26 58.5015L953.46 65.8695L913.759 74.1284Z" stroke="#0D7377" stroke-opacity="0.2" stroke-miterlimit="10"/>
<path d="M883.397 58.5183L822.037 52.0585L859.716 46.3869L920.064 52.1099L883.397 58.5183Z" stroke="#0D7377" stroke-opacity="0.2" stroke-miterlimit="10"/>
<path d="M953.46 65.869L883.26 58.5011L919.929 52.0927L988.449 58.5868L953.46 65.869Z" stroke="#0D7377" stroke-opacity="0.2" stroke-miterlimit="10"/>
<path d="M920.014 52.1275L859.648 46.3874L893.593 41.2641L952.826 46.3873L920.014 52.1275Z" stroke="#0D7377" stroke-opacity="0.2" stroke-miterlimit="10"/>
<path d="M988.399 58.6041L919.86 52.11L952.672 46.3699L1019.46 52.1443L988.399 58.6041Z" stroke="#0D7377" stroke-opacity="0.2" stroke-miterlimit="10"/>
<path d="M952.826 46.3868L893.592 41.2636L924.331 36.6372L982.35 41.2293L952.826 46.3868Z" stroke="#0D7377" stroke-opacity="0.2" stroke-miterlimit="10"/>
<path d="M1019.46 52.1438L952.672 46.3695L982.212 41.2119L1047.26 46.3695L1019.46 52.1438Z" stroke="#0D7377" stroke-opacity="0.2" stroke-miterlimit="10"/>
<path d="M872.293 32.5255L825.293 28.8073L854.696 25.2947L901.114 28.6874L872.293 32.5255Z" stroke="#0D7377" stroke-opacity="0.2" stroke-miterlimit="10"/>
<path d="M924.246 36.638L872.174 32.5257L901.012 28.6875L952.21 32.4229L924.246 36.638Z" stroke="#0D7377" stroke-opacity="0.2" stroke-miterlimit="10"/>
<path d="M901.114 28.6868L854.697 25.2942L881.786 22.0728L927.571 25.1742L901.114 28.6868Z" stroke="#0D7377" stroke-opacity="0.2" stroke-miterlimit="10"/>
<path d="M952.21 32.4225L901.012 28.6871L927.45 25.1573L977.758 28.5671L952.21 32.4225Z" stroke="#0D7377" stroke-opacity="0.2" stroke-miterlimit="10"/>
<path d="M927.519 25.1746L881.735 22.0732L906.785 19.0918L951.884 21.9361L927.519 25.1746Z" stroke="#0D7377" stroke-opacity="0.2" stroke-miterlimit="10"/>
<path d="M977.707 28.5838L927.415 25.174L951.782 21.9355L1001.15 25.0369L977.707 28.5838Z" stroke="#0D7377" stroke-opacity="0.2" stroke-miterlimit="10"/>
<path d="M951.884 21.9355L906.785 19.0912L929.986 16.3325L974.399 18.937L951.884 21.9355Z" stroke="#0D7377" stroke-opacity="0.2" stroke-miterlimit="10"/>
<path d="M1001.15 25.0371L951.782 21.9357L974.28 18.9371L1022.72 21.7815L1001.15 25.0371Z" stroke="#0D7377" stroke-opacity="0.2" stroke-miterlimit="10"/>
<path d="M982.265 41.2466L924.229 36.6374L952.21 32.4222L1008.98 36.5688L982.265 41.2466Z" stroke="#0D7377" stroke-opacity="0.2" stroke-miterlimit="10"/>
<path d="M1047.17 46.3873L982.109 41.2297L1008.84 36.552L1072.15 41.1783L1047.17 46.3873Z" stroke="#0D7377" stroke-opacity="0.2" stroke-miterlimit="10"/>
<path d="M1008.98 36.5687L952.21 32.4221L977.74 28.5668L1033.27 32.3193L1008.98 36.5687Z" stroke="#0D7377" stroke-opacity="0.2" stroke-miterlimit="10"/>
<path d="M1072.15 41.1778L1008.84 36.5514L1033.14 32.3191L1094.74 36.4829L1072.15 41.1778Z" stroke="#0D7377" stroke-opacity="0.2" stroke-miterlimit="10"/>
<path d="M1033.24 32.3363L977.706 28.5839L1001.15 25.037L1055.43 28.4639L1033.24 32.3363Z" stroke="#0D7377" stroke-opacity="0.2" stroke-miterlimit="10"/>
<path d="M1094.7 36.5004L1033.1 32.3195L1055.29 28.4471L1115.23 32.2338L1094.7 36.5004Z" stroke="#0D7377" stroke-opacity="0.2" stroke-miterlimit="10"/>
<path d="M1055.43 28.4641L1001.15 25.0372L1022.7 21.7816L1075.75 24.9172L1055.43 28.4641Z" stroke="#0D7377" stroke-opacity="0.2" stroke-miterlimit="10"/>
<path d="M1115.23 32.2333L1055.29 28.4465L1075.63 24.8997L1133.98 28.3266L1115.23 32.2333Z" stroke="#0D7377" stroke-opacity="0.2" stroke-miterlimit="10"/>
<path d="M997.582 83.9634L913.844 74.1281L953.545 65.8692L1034.68 74.4022L997.582 83.9634Z" stroke="#0D7377" stroke-opacity="0.2" stroke-miterlimit="10"/>
<path d="M1096.31 95.5463L997.376 83.9289L1034.47 74.3678L1129.24 84.323L1096.31 95.5463Z" stroke="#0D7377" stroke-opacity="0.2" stroke-miterlimit="10"/>
<path d="M1034.68 74.4028L953.545 65.8697L988.534 58.6046L1067.05 66.0411L1034.68 74.4028Z" stroke="#0D7377" stroke-opacity="0.2" stroke-miterlimit="10"/>
<path d="M1129.24 84.3229L1034.47 74.3677L1066.84 66.0231L1157.65 74.6418L1129.24 84.3229Z" stroke="#0D7377" stroke-opacity="0.2" stroke-miterlimit="10"/>
<path d="M1066.99 66.0745L988.468 58.621L1019.55 52.1612L1095.51 58.7237L1066.99 66.0745Z" stroke="#0D7377" stroke-opacity="0.2" stroke-miterlimit="10"/>
<path d="M1157.62 74.6592L1066.79 66.0405L1095.3 58.6897L1182.38 66.2289L1157.62 74.6592Z" stroke="#0D7377" stroke-opacity="0.2" stroke-miterlimit="10"/>
<path d="M1095.51 58.724L1019.55 52.1615L1047.32 46.3699L1120.78 52.1957L1095.51 58.724Z" stroke="#0D7377" stroke-opacity="0.2" stroke-miterlimit="10"/>
<path d="M1182.38 66.2292L1095.3 58.69L1120.59 52.1788L1204.16 58.7927L1182.38 66.2292Z" stroke="#0D7377" stroke-opacity="0.2" stroke-miterlimit="10"/>
<path d="M1215.04 109.494L1096.3 95.5463L1129.23 84.3231L1241.44 96.1117L1215.04 109.494Z" stroke="#0D7377" stroke-opacity="0.2" stroke-miterlimit="10"/>
<path d="M1359.81 126.474L1214.73 109.442L1241.15 96.0772L1376.05 110.248L1359.81 126.474Z" stroke="#0D7377" stroke-opacity="0.2" stroke-miterlimit="10"/>
<path d="M1241.44 96.1119L1129.23 84.3232L1157.64 74.6421L1263.92 84.7173L1241.44 96.1119Z" stroke="#0D7377" stroke-opacity="0.2" stroke-miterlimit="10"/>
<path d="M1376.05 110.248L1241.15 96.0779L1263.65 84.7005L1389.66 96.6433L1376.05 110.248Z" stroke="#0D7377" stroke-opacity="0.2" stroke-miterlimit="10"/>
<path d="M1263.91 84.7515L1157.6 74.6763L1182.38 66.2289L1283.27 74.9333L1263.91 84.7515Z" stroke="#0D7377" stroke-opacity="0.2" stroke-miterlimit="10"/>
<path d="M1389.66 96.6778L1263.63 84.7178L1283 74.9168L1401.22 85.129L1389.66 96.6778Z" stroke="#0D7377" stroke-opacity="0.2" stroke-miterlimit="10"/>
<path d="M1283.27 74.9336L1182.38 66.2292L1204.16 58.7928L1300.11 66.4005L1283.27 74.9336Z" stroke="#0D7377" stroke-opacity="0.2" stroke-miterlimit="10"/>
<path d="M1401.22 85.1289L1282.99 74.9166L1299.87 66.3835L1411.15 75.1908L1401.22 85.1289Z" stroke="#0D7377" stroke-opacity="0.2" stroke-miterlimit="10"/>
<path d="M1120.7 52.2128L1047.24 46.387L1072.22 41.1952L1143.28 46.387L1120.7 52.2128Z" stroke="#0D7377" stroke-opacity="0.2" stroke-miterlimit="10"/>
<path d="M1204.09 58.8097L1120.51 52.1957L1143.11 46.3699L1223.38 52.2299L1204.09 58.8097Z" stroke="#0D7377" stroke-opacity="0.2" stroke-miterlimit="10"/>
<path d="M1143.28 46.3868L1072.22 41.195L1094.82 36.5001L1163.58 41.1436L1143.28 46.3868Z" stroke="#0D7377" stroke-opacity="0.2" stroke-miterlimit="10"/>
<path d="M1223.38 52.23L1143.11 46.3699L1163.4 41.1267L1240.62 46.3528L1223.38 52.23Z" stroke="#0D7377" stroke-opacity="0.2" stroke-miterlimit="10"/>
<path d="M1163.55 41.1611L1094.79 36.5005L1115.31 32.2339L1181.88 36.4319L1163.55 41.1611Z" stroke="#0D7377" stroke-opacity="0.2" stroke-miterlimit="10"/>
<path d="M1240.6 46.3698L1163.38 41.1437L1181.71 36.4146L1256.06 41.1095L1240.6 46.3698Z" stroke="#0D7377" stroke-opacity="0.2" stroke-miterlimit="10"/>
<path d="M1181.88 36.4319L1115.31 32.2339L1134.04 28.3443L1198.54 32.1311L1181.88 36.4319Z" stroke="#0D7377" stroke-opacity="0.2" stroke-miterlimit="10"/>
<path d="M1256.06 41.1094L1181.71 36.4145L1198.37 32.1309L1270.02 36.346L1256.06 41.1094Z" stroke="#0D7377" stroke-opacity="0.2" stroke-miterlimit="10"/>
<path d="M1300.04 66.4175L1204.07 58.8098L1223.38 52.23L1314.85 58.9125L1300.04 66.4175Z" stroke="#0D7377" stroke-opacity="0.2" stroke-miterlimit="10"/>
<path d="M1411.09 75.2077L1299.79 66.4005L1314.61 58.8955L1419.73 66.5719L1411.09 75.2077Z" stroke="#0D7377" stroke-opacity="0.2" stroke-miterlimit="10"/>
<path d="M1314.85 58.9125L1223.38 52.2299L1240.6 46.3699L1327.96 52.2813L1314.85 58.9125Z" stroke="#0D7377" stroke-opacity="0.2" stroke-miterlimit="10"/>
<path d="M1419.73 66.5716L1314.61 58.8953L1327.73 52.2642L1427.3 58.9981L1419.73 66.5716Z" stroke="#0D7377" stroke-opacity="0.2" stroke-miterlimit="10"/>
<path d="M1327.96 52.299L1240.59 46.3875L1256.06 41.11L1339.64 46.3704L1327.96 52.299Z" stroke="#0D7377" stroke-opacity="0.2" stroke-miterlimit="10"/>
<path d="M1427.32 59.0148L1327.72 52.2809L1339.42 46.3523L1434.02 52.3151L1427.32 59.0148Z" stroke="#0D7377" stroke-opacity="0.2" stroke-miterlimit="10"/>
<path d="M1339.64 46.3699L1256.06 41.1095L1270.02 36.3461L1350.11 41.0581L1339.64 46.3699Z" stroke="#0D7377" stroke-opacity="0.2" stroke-miterlimit="10"/>
<path d="M1434.02 52.3158L1339.42 46.3529L1349.91 41.0412L1440 46.3529L1434.02 52.3158Z" stroke="#0D7377" stroke-opacity="0.2" stroke-miterlimit="10"/>
</svg>
