<svg width="1440" height="1024" viewBox="0 0 1440 1024" fill="none" xmlns="http://www.w3.org/2000/svg">
<path d="M9.28717 945.182L-4.73232 663.419C-5.81074 641.743 -14.4894 621.115 -29.2535 605.114L-277.367 336.387C-317.577 292.83 -307.229 223.456 -256.03 193.396L24.8216 28.6275C44.9007 16.8437 68.6774 12.9584 91.4782 17.7639L553.376 114.744C580.49 120.444 608.76 113.849 630.508 96.7487L945.612 -150.992C973.754 -173.128 1012.17 -177.244 1044.42 -161.6L1425.53 23.4387C1466.46 43.3254 1487.03 89.6938 1474.17 133.199L1406.89 360.849C1394.75 402.003 1412.44 446.071 1449.75 467.542L1542.34 520.838C1586.27 546.118 1601.88 601.689 1577.49 645.986L1405.4 958.423C1382.09 1000.78 1330.04 1018.29 1285.7 998.708L1071.97 904.386C1039.41 890.021 1001.46 895.338 974.164 918.113L683.274 1160.87C653.078 1186.05 610.275 1189.68 576.253 1169.92L451.67 1097.58C426.918 1083.21 410.177 1058.32 406.223 1030.07L400.651 990.094C390.2 915.25 299.202 883.426 244.049 935.316L166.659 1008.14C131.097 1041.6 75.61 1042.06 39.5086 1009.16C21.3552 992.624 10.4939 969.645 9.26146 945.182L9.28717 945.182Z" stroke="#0D7377" stroke-opacity="0.3" stroke-width="0.5" stroke-miterlimit="10"/>
<path d="M1390.74 49.196C1429.26 67.9062 1447.99 113.531 1435.9 154.479C1435.8 154.837 1372.67 369.492 1373.01 369.671C1361.56 408.395 1379.04 450.34 1414.12 470.558C1414.5 470.788 1501.72 521.423 1501.52 521.806C1542.83 545.603 1556.02 600.634 1533.08 642.323C1532.87 642.681 1370.57 936.88 1370.19 936.727C1348.25 976.575 1297.44 992.244 1255.74 973.815C1255.46 973.687 1054.07 884.967 1053.84 885.146C1023.21 871.625 984.997 878.756 959.311 900.175C959.054 900.405 685.052 1128.84 684.77 1128.68C656.389 1152.38 615.025 1155.17 583.026 1136.58C582.821 1136.45 465.501 1068.16 465.45 1067.9C442.176 1054.38 426.369 1030.61 422.674 1004.03C422.571 1003.39 416.541 965.482 416.054 965.916C406.226 895.472 319.955 866.155 268.07 915C267.762 915.281 194.476 983.834 194.168 983.527C160.707 1015.02 108.539 1015.43 74.5645 984.499C74.4105 984.345 74.308 984.166 74.308 983.936C57.2438 968.37 46.9026 944.292 45.7479 921.263C45.7479 921.084 32.4814 655.717 32.3531 655.563C31.3266 635.14 21.0113 613.389 7.12897 598.359C6.76972 597.976 -226.484 344.469 -226.047 344.213C-263.871 303.214 -251.682 236.476 -203.543 208.207C-203.364 208.104 61.0158 53.0044 61.1954 53.0556C80.0815 41.9624 106.46 39.1763 127.913 43.6749C128.144 43.726 562.857 134.925 563.037 134.772C588.543 140.14 617.873 131.756 638.324 115.678C638.581 115.474 935.293 -117.713 935.575 -117.559C962.057 -138.391 1001.5 -140.666 1031.83 -125.918C1032.19 -125.739 1390.82 48.8126 1390.71 49.196L1390.74 49.196Z" stroke="#0D7377" stroke-opacity="0.3" stroke-width="0.5" stroke-miterlimit="10"/>
<path d="M1355.77 76.8024C1391.89 94.3347 1408.85 139.239 1397.51 177.601C1397.3 178.316 1338.26 379.938 1338.93 380.296C1328.2 416.587 1345.43 456.406 1378.33 475.344C1379.1 475.778 1461.04 523.775 1460.63 524.542C1499.38 546.853 1510.14 601.316 1488.63 640.393C1488.22 641.134 1335.54 917.077 1334.77 916.745C1314.19 954.11 1264.59 967.911 1225.45 950.634C1224.89 950.378 1035.68 867.266 1035.22 867.649C1006.5 854.973 967.969 863.892 943.867 884.006C943.353 884.44 686.001 1098.64 685.41 1098.28C658.792 1120.49 618.852 1122.43 588.845 1105C588.409 1104.74 478.24 1040.49 478.163 1040.01C456.345 1027.33 441.457 1004.69 437.992 979.769C437.812 978.466 431.318 942.634 430.342 943.555C421.127 877.54 339.502 850.73 290.86 896.503C290.244 897.091 221.016 961.342 220.374 960.755C189.007 990.273 140.057 990.657 108.228 961.649C107.92 961.368 107.715 960.959 107.689 960.525C91.672 945.931 81.841 920.757 80.7629 899.161C80.7629 898.778 68.2366 649.849 67.9799 649.568C67.0302 630.426 55.0687 607.552 42.0291 593.444C41.336 592.678 -177.334 354.406 -176.436 353.87C-211.91 315.431 -197.895 251.359 -152.718 224.856C-152.359 224.652 95.7789 79.2302 96.1896 79.3069C113.901 68.9051 142.932 67.1927 163.031 71.4097C163.493 71.5119 571.417 156.95 571.802 156.644C595.725 161.678 626.142 151.532 645.316 136.453C645.804 136.07 924.436 -82.5734 925 -82.2922C949.822 -101.818 990.353 -102.227 1018.79 -88.426C1019.51 -88.0682 1356.03 75.9846 1355.8 76.7513L1355.77 76.8024Z" stroke="#0D7377" stroke-opacity="0.3" stroke-width="0.5" stroke-miterlimit="10"/>
<path d="M1322.63 102.552C1356.34 118.907 1371.51 163.063 1360.93 198.864C1360.63 199.937 1305.68 388.523 1306.66 389.085C1296.64 422.969 1313.64 460.636 1344.35 478.319C1345.5 478.983 1422.15 524.29 1421.5 525.465C1457.68 546.291 1466.03 600.21 1445.95 636.675C1445.33 637.774 1302.26 895.457 1301.11 894.945C1281.9 929.826 1233.48 941.76 1196.94 925.661C1196.1 925.278 1019.09 847.773 1018.37 848.361C991.535 836.53 952.687 847.262 930.221 866.019C929.425 866.683 688.765 1066.59 687.866 1066.08C663.012 1086.8 624.498 1087.9 596.486 1071.65C595.844 1071.27 492.806 1011.06 492.704 1010.32C472.317 998.489 458.375 976.947 455.14 953.693C454.857 951.751 447.899 917.995 446.461 919.349C437.86 857.739 360.883 833.438 315.463 876.163C314.538 877.032 249.347 937.007 248.397 936.138C219.101 963.685 173.424 964.042 143.691 936.981C143.229 936.547 142.921 935.959 142.895 935.32C127.952 921.7 118.631 895.431 117.63 875.269C117.604 874.707 105.845 642.194 105.46 641.76C104.561 623.898 90.9526 599.903 78.7823 586.743C77.7296 585.593 -126.317 362.561 -124.982 361.768C-158.104 325.917 -142.236 264.486 -100.076 239.75C-99.5627 239.443 132.368 103.702 132.958 103.83C149.494 94.1195 181.152 93.4807 199.921 97.4159C200.64 97.5692 581.748 177.22 582.313 176.786C604.651 181.462 636.155 169.579 654.077 155.499C654.821 154.912 915.303 -49.1342 916.151 -48.7253C939.336 -66.9451 980.905 -65.5141 1007.48 -52.6095C1008.56 -52.0984 1322.93 101.479 1322.6 102.603L1322.63 102.552Z" stroke="#0D7377" stroke-opacity="0.3" stroke-width="0.5" stroke-miterlimit="10"/>
<path d="M1287.6 130.255C1318.91 145.455 1332.29 188.833 1322.45 222.069C1322.04 223.5 1271.19 399.031 1272.5 399.772C1263.2 431.22 1279.98 466.755 1308.51 483.181C1310.05 484.05 1381.4 526.713 1380.55 528.271C1414.14 547.584 1420.1 600.951 1401.43 634.801C1400.61 636.282 1267.19 875.68 1265.64 874.99C1247.79 907.357 1200.56 917.448 1166.64 902.504C1165.51 901.993 1000.7 830.104 999.751 830.896C974.839 819.911 935.673 832.429 914.793 849.852C913.74 850.721 689.736 1036.34 688.554 1035.65C665.466 1054.89 628.38 1055.14 602.363 1040.05C601.49 1039.54 505.642 983.384 505.488 982.413C486.56 971.428 473.565 951.016 470.534 929.43C470.174 926.824 462.727 895.172 460.8 896.96C452.813 839.761 380.516 817.97 338.32 857.644C337.087 858.819 275.936 914.485 274.678 913.335C247.48 938.907 205.052 939.239 177.418 914.127C176.776 913.54 176.416 912.748 176.365 911.905C162.47 899.259 153.687 871.899 152.762 853.198C152.737 852.432 141.693 636.384 141.179 635.822C140.358 619.243 125.076 594.13 113.776 581.919C112.363 580.412 -77.0462 372.615 -75.2484 371.568C-106.016 338.281 -88.2952 279.524 -49.1292 256.557C-48.4357 256.148 167.222 130.101 168.018 130.255C183.376 121.262 217.662 121.671 235.101 125.324C236.051 125.529 590.318 199.409 591.089 198.796C611.84 203.139 644.431 189.472 661.074 176.417C662.05 175.651 904.417 -13.8281 905.547 -13.2917C927.069 -30.2035 969.728 -26.908 994.384 -14.9522C995.822 -14.2624 1288.04 128.773 1287.58 130.306L1287.6 130.255Z" stroke="#0D7377" stroke-opacity="0.3" stroke-width="0.5" stroke-miterlimit="10"/>
<path d="M1252.55 156.255C1281.47 170.274 1293.06 212.893 1283.96 243.561C1283.43 245.349 1236.7 407.807 1238.34 408.752C1229.76 437.761 1246.28 471.161 1272.64 486.304C1274.54 487.402 1340.61 527.391 1339.55 529.332C1370.58 547.156 1374.1 599.938 1356.87 631.168C1355.84 633.007 1232.08 854.095 1230.12 853.253C1213.66 883.129 1167.6 891.352 1136.29 877.563C1134.87 876.95 982.265 810.659 981.084 811.629C958.094 801.492 918.612 815.817 899.346 831.879C898.036 832.977 690.739 1004.3 689.249 1003.43C667.928 1021.18 632.274 1020.59 608.256 1006.67C607.177 1006.06 518.478 953.94 518.299 952.714C500.831 942.576 488.758 923.297 485.958 903.379C485.496 900.136 477.61 870.54 475.195 872.813C467.823 820.03 400.188 800.751 361.22 837.369C359.679 838.825 302.601 890.203 301.034 888.773C275.912 912.368 236.738 912.674 211.231 889.488C210.434 888.773 209.972 887.777 209.921 886.704C197.103 875.06 188.806 846.588 187.958 829.325C187.906 828.381 177.631 628.793 176.989 628.104C176.219 612.808 159.291 586.583 148.862 575.296C147.115 573.406 -27.637 380.892 -25.4279 379.59C-53.8382 348.871 -34.29 292.769 1.87793 271.6C2.7513 271.089 202.137 154.723 203.114 154.952C217.293 146.653 254.206 148.134 270.312 151.505C271.494 151.76 598.906 219.839 599.856 219.098C619.019 223.107 652.695 207.684 668.057 195.631C669.29 194.66 893.49 19.7918 894.877 20.4813C914.759 4.87893 958.479 10.0116 981.238 21.0686C983.01 21.9368 1253.04 154.442 1252.5 156.331L1252.55 156.255Z" stroke="#0D7377" stroke-opacity="0.3" stroke-width="0.5" stroke-miterlimit="10"/>
<path d="M1217.61 182.729C1244.09 195.588 1253.86 237.513 1245.55 265.659C1244.91 267.806 1202.34 417.433 1204.29 418.558C1196.44 445.195 1212.71 476.486 1236.83 490.393C1239.11 491.722 1299.79 529.097 1298.53 531.423C1326.93 547.784 1328.04 600.088 1312.26 628.745C1311.05 630.969 1197.06 834.051 1194.75 833.028C1179.66 860.433 1134.87 866.849 1106.18 854.169C1104.49 853.428 964.301 792.662 962.89 793.838C941.826 784.533 902.11 800.664 884.458 815.414C882.893 816.718 692.572 973.988 690.776 972.94C671.251 989.25 637.076 987.793 615.088 975.011C613.805 974.269 532.371 926.158 532.166 924.675C516.156 915.37 505.047 897.194 502.507 878.915C501.968 875.004 493.604 847.472 490.73 850.181C483.983 801.763 421.098 784.967 385.435 818.533C383.588 820.271 330.633 867.437 328.76 865.699C305.771 887.352 269.903 887.633 246.556 866.363C245.606 865.494 245.042 864.293 244.965 863.015C233.24 852.329 225.466 822.7 224.696 806.876C224.645 805.751 215.126 622.329 214.357 621.485C213.664 607.45 195.088 580.071 185.544 569.718C183.44 567.443 23.5735 389.926 26.2418 388.341C0.251594 360.143 21.598 306.638 54.6952 287.209C55.7471 286.596 238.577 179.763 239.757 180.019C252.739 172.401 292.225 174.957 306.977 178.051C308.388 178.357 608.52 240.759 609.649 239.865C627.173 243.546 661.912 226.341 675.972 215.272C677.434 214.122 883.175 53.579 884.868 54.3971C903.059 40.0812 947.804 47.0858 968.638 57.2091C970.767 58.2573 1218.25 180.428 1217.58 182.703L1217.61 182.729Z" stroke="#0D7377" stroke-opacity="0.3" stroke-width="0.5" stroke-miterlimit="10"/>
<path d="M1184.08 208.967C1208.18 220.64 1216.17 261.788 1208.61 287.356C1207.87 289.859 1169.36 426.357 1171.65 427.685C1164.5 451.874 1180.56 481.018 1202.5 493.635C1205.17 495.168 1260.61 529.88 1259.15 532.587C1284.99 547.453 1283.68 599.151 1269.32 625.178C1267.91 627.758 1163.45 812.479 1160.75 811.279C1147.03 836.183 1103.36 840.729 1077.26 829.21C1075.28 828.341 947.16 773.221 945.491 774.6C926.325 766.146 886.248 784.076 870.191 797.461C868.341 798.993 694.518 941.877 692.463 940.676C674.685 955.491 641.903 953.192 621.865 941.596C620.349 940.727 546.026 896.692 545.769 894.955C531.202 886.501 521.003 869.439 518.691 852.836C518.048 848.29 509.211 822.85 505.845 825.991C499.705 782.008 441.413 767.729 408.94 798.227C406.782 800.27 357.841 843.079 355.632 841.087C334.694 860.754 302.041 861.01 280.795 841.7C279.69 840.704 279.022 839.299 278.945 837.792C268.257 828.086 261.013 797.384 260.293 783.029C260.216 781.701 251.456 614.833 250.557 613.863C249.914 601.117 229.696 572.612 220.987 563.212C218.546 560.556 73.1365 398.388 76.2708 396.549C52.6097 370.956 75.8341 320.127 105.969 302.477C107.202 301.762 273.935 204.676 275.348 204.957C287.166 198.035 329.324 201.662 342.761 204.471C344.405 204.829 617.985 261.405 619.321 260.383C635.275 263.729 671.139 244.752 683.933 234.713C685.655 233.36 873.454 87.4878 875.432 88.4584C892.002 75.4574 937.86 84.2951 956.82 93.4903C959.312 94.6908 1184.88 206.31 1184.08 208.941L1184.08 208.967Z" stroke="#0D7377" stroke-opacity="0.3" stroke-width="0.5" stroke-miterlimit="10"/>
<path d="M1148.83 235.574C1170.5 246.108 1176.69 286.53 1169.89 309.566C1169.04 312.43 1134.65 436.048 1137.24 437.557C1130.8 459.34 1146.64 486.391 1166.39 497.768C1169.45 499.532 1219.59 531.619 1217.87 534.713C1241.14 548.11 1237.41 599.296 1224.49 622.767C1222.87 625.707 1128.13 792.381 1125.02 791.026C1112.66 813.449 1070.21 816.159 1046.73 805.778C1044.47 804.781 928.635 755.206 926.734 756.791C909.5 749.172 869.124 768.91 854.664 780.978C852.558 782.742 695.524 911.5 693.161 910.145C677.185 923.491 645.825 920.346 627.795 909.889C626.074 908.892 558.935 868.853 558.652 866.885C545.553 859.265 536.281 843.311 534.201 828.354C533.482 823.139 524.184 799.745 520.331 803.375C514.809 763.746 461.206 751.959 432.003 779.444C429.537 781.771 384.667 820.352 382.15 818.076C363.323 835.795 333.94 836.025 314.805 818.613C313.547 817.463 312.776 815.852 312.699 814.165C303.093 805.42 296.364 773.589 295.722 760.652C295.645 759.144 287.631 608.5 286.604 607.375C286.039 595.896 264.156 566.237 256.322 557.775C253.523 554.732 122.841 407.617 126.411 405.521C105.118 382.459 130.161 334.239 157.283 318.336C158.67 317.518 309.078 230.001 310.67 230.333C321.303 224.095 366.097 228.799 378.169 231.33C380.069 231.739 626.639 282.618 628.154 281.417C642.512 284.434 679.446 263.673 690.952 254.622C692.904 253.088 862.472 121.595 864.707 122.694C879.604 110.985 926.503 121.697 943.583 129.981C946.434 131.362 1149.7 232.583 1148.8 235.626L1148.83 235.574Z" stroke="#0D7377" stroke-opacity="0.3" stroke-width="0.5" stroke-miterlimit="10"/>
<path d="M1113.4 262.146C1132.65 271.489 1137.07 311.107 1131.01 331.554C1130.06 334.771 1099.8 445.226 1102.72 446.886C1097 466.235 1112.58 491.124 1130.14 501.207C1133.57 503.198 1178.37 532.58 1176.44 536.052C1197.1 547.922 1190.97 598.516 1179.5 619.321C1177.67 622.639 1092.63 770.849 1089.17 769.318C1078.18 789.229 1036.98 790.071 1016.12 780.856C1013.58 779.733 910.029 735.826 907.898 737.588C892.574 730.823 851.941 752.342 839.082 763.038C836.72 765.004 696.519 879.365 693.85 877.808C679.655 889.652 649.752 885.67 633.735 876.404C631.784 875.281 571.874 839.339 571.566 837.118C559.912 830.353 551.596 815.547 549.748 802.273C548.926 796.428 539.172 775.138 534.86 779.197C529.957 744.021 481.059 734.78 455.108 759.158C452.31 761.787 411.575 796.019 408.726 793.466C391.99 809.191 365.885 809.395 348.918 793.951C347.506 792.65 346.634 790.863 346.557 788.948C338.009 781.188 331.797 748.309 331.233 736.822C331.156 735.137 323.866 601.094 322.711 599.844C322.197 589.658 298.685 558.924 291.729 551.419C288.572 547.998 172.679 416.279 176.684 413.93C157.766 393.457 184.641 347.968 208.718 333.852C210.283 332.933 344.272 255.203 346.069 255.56C355.515 250.021 402.899 255.79 413.628 258.036C415.759 258.47 635.249 303.526 636.969 302.198C649.726 304.878 687.715 282.389 697.957 274.348C700.164 272.612 851.402 155.877 853.944 157.102C867.188 146.713 915.111 159.247 930.281 166.598C933.49 168.156 1114.4 258.751 1113.37 262.146L1113.4 262.146Z" stroke="#0D7377" stroke-opacity="0.3" stroke-width="0.5" stroke-miterlimit="10"/>
<path d="M1079.42 289.14C1096.3 297.311 1098.9 336.198 1093.6 354.097C1092.55 357.672 1066.37 455.158 1069.64 457.022C1064.63 473.951 1079.99 496.727 1095.35 505.536C1099.18 507.732 1138.69 534.491 1136.56 538.346C1154.64 548.738 1146.09 598.784 1136.04 617.015C1134.01 620.692 1058.59 750.733 1054.71 749.022C1045.1 766.436 1005.06 765.44 986.765 757.397C983.939 756.146 892.564 717.821 890.2 719.787C876.791 713.863 835.817 737.175 824.565 746.546C821.945 748.742 698.356 848.884 695.401 847.173C682.968 857.539 654.479 852.739 640.453 844.594C638.295 843.343 585.53 811.426 585.17 808.975C574.972 803.077 567.599 789.34 565.955 777.722C565.056 771.211 554.806 752.01 550.002 756.504C545.712 725.71 501.476 718.97 478.741 740.315C475.633 743.226 438.924 773.202 435.79 770.343C421.147 784.105 398.284 784.284 383.41 770.777C381.817 769.347 380.892 767.33 380.764 765.211C373.288 758.419 367.586 724.434 367.097 714.374C366.995 712.484 360.47 594.801 359.185 593.396C358.749 584.485 333.548 552.619 327.46 546.032C323.966 542.253 222.649 425.667 227.119 423.063C210.549 405.138 239.295 362.268 260.386 349.91C262.133 348.888 379.916 280.791 381.894 281.199C390.166 276.348 440.208 283.191 449.61 285.157C451.974 285.642 644.717 324.964 646.618 323.483C657.793 325.832 696.891 301.549 705.857 294.528C708.297 292.613 841.468 190.352 844.268 191.705C855.854 182.589 904.894 197.016 918.175 203.45C921.746 205.186 1080.53 285.336 1079.42 289.115L1079.42 289.14Z" stroke="#0D7377" stroke-opacity="0.3" stroke-width="0.5" stroke-miterlimit="10"/>
<path d="M1045.2 314.701C1059.67 321.719 1060.47 359.984 1055.95 375.378C1054.79 379.322 1032.71 464.074 1036.29 466.123C1031.99 480.671 1047.13 501.392 1060.29 508.973C1064.5 511.406 1098.71 535.584 1096.37 539.836C1111.89 548.775 1100.89 598.412 1092.28 614.087C1090.05 618.16 1024.28 730.317 1020.02 728.447C1011.77 743.431 972.912 740.562 957.235 733.647C954.126 732.264 874.972 699.428 872.35 701.605C860.837 696.534 819.538 721.711 809.901 729.754C806.997 732.161 700.14 818.348 696.876 816.452C686.211 825.366 659.149 819.705 647.122 812.713C644.758 811.33 599.141 783.361 598.756 780.646C590.018 775.575 583.568 762.922 582.18 752.933C581.178 745.762 570.487 728.55 565.193 733.544C561.492 707.087 521.941 702.809 502.461 721.173C499.043 724.375 466.379 750.167 462.935 747.017C450.368 758.85 430.786 759.003 418.013 747.375C416.266 745.787 415.238 743.585 415.109 741.228C408.684 735.388 403.519 700.197 403.082 691.565C402.979 689.491 397.197 587.86 395.783 586.323C395.398 578.665 368.542 545.573 363.325 539.913C359.47 535.738 272.812 434.03 277.721 431.162C263.509 415.769 294.091 375.403 312.184 364.774C314.111 363.647 415.597 304.994 417.782 305.455C424.875 301.28 477.558 309.22 485.628 310.91C488.223 311.448 654.112 345.129 656.194 343.464C665.78 345.487 705.973 319.363 713.658 313.318C716.356 311.192 831.36 223.187 834.444 224.698C844.39 216.861 894.503 233.176 905.888 238.709C909.82 240.604 1046.41 310.501 1045.18 314.676L1045.2 314.701Z" stroke="#0D7377" stroke-opacity="0.3" stroke-width="0.5" stroke-miterlimit="10"/>
<path d="M1010.63 341.609C1022.68 347.454 1021.71 384.822 1017.9 397.61C1016.64 401.898 998.683 473.367 1002.59 475.613C999.017 487.687 1013.89 506.217 1024.89 512.522C1029.49 515.151 1058.38 536.617 1055.83 541.237C1068.76 548.665 1055.37 597.596 1048.17 610.588C1045.73 615.004 989.638 708.603 985.012 706.561C978.151 718.991 940.481 714.295 927.427 708.551C924.009 707.046 857.148 679.913 854.295 682.287C844.711 678.075 803.108 704.953 795.091 711.64C791.931 714.269 701.839 785.917 698.268 783.875C689.377 791.277 663.758 784.794 653.736 778.974C651.141 777.468 612.725 753.628 612.314 750.693C605.042 746.481 599.517 734.995 598.36 726.7C597.281 718.889 586.103 703.829 580.347 709.241C577.264 687.264 542.394 685.503 526.154 700.741C522.428 704.238 493.854 725.653 490.076 722.233C479.618 732.06 463.275 732.187 452.663 722.539C450.761 720.803 449.63 718.404 449.502 715.852C444.157 711.002 439.506 674.833 439.146 667.661C439.044 665.389 434.007 580.494 432.465 578.835C432.157 572.454 403.66 538.353 399.291 533.682C395.077 529.139 323.128 442.967 328.498 439.828C316.652 427.04 349.081 389.468 364.165 380.636C366.272 379.411 451.429 330.608 453.793 331.118C459.703 327.647 515.002 336.632 521.734 338.036C524.561 338.623 663.475 366.419 665.762 364.632C673.753 366.317 715.022 338.52 721.42 333.492C724.375 331.195 821.122 257.99 824.513 259.624C832.788 253.115 883.949 271.212 893.457 275.832C897.748 277.899 1012.07 337.091 1010.71 341.635L1010.63 341.609Z" stroke="#0D7377" stroke-opacity="0.3" stroke-width="0.5" stroke-miterlimit="10"/>
<path d="M975.711 367.479C985.334 372.162 982.563 408.886 979.535 419.148C978.149 423.806 964.342 482.437 968.577 484.868C965.728 494.567 980.356 510.997 989.132 516.038C994.111 518.905 1017.64 537.766 1014.87 542.782C1025.21 548.745 1009.41 597.241 1003.66 607.682C1001.01 612.493 954.667 688.066 949.638 685.839C944.146 695.82 907.73 689.243 897.311 684.636C893.616 682.998 839.057 661.399 835.978 663.984C828.33 660.606 786.474 689.371 780.059 694.719C776.646 697.586 703.379 755.167 699.529 752.915C692.421 758.852 668.272 751.507 660.266 746.85C657.468 745.212 626.288 725.353 625.826 722.154C620.001 718.775 615.433 708.385 614.509 701.731C613.328 693.261 601.729 680.234 595.467 686.095C593.004 668.462 562.85 669.23 549.89 681.437C545.861 685.225 521.379 702.422 517.299 698.712C508.933 706.594 495.896 706.696 487.402 698.942C485.349 697.074 484.117 694.463 483.989 691.699C479.729 687.81 475.571 650.446 475.289 644.688C475.161 642.231 470.901 573.517 469.233 571.7C468.976 566.582 438.874 531.265 435.384 527.503C430.841 522.564 373.665 451.394 379.465 447.99C369.995 437.728 404.229 402.719 416.265 395.63C418.549 394.299 487.274 355.041 489.866 355.579C494.588 352.815 552.431 362.872 557.795 363.998C560.874 364.638 672.686 386.749 675.15 384.804C681.54 386.135 723.832 356.5 728.939 352.482C732.121 349.974 810.572 291.139 814.216 292.93C820.837 287.71 872.983 307.722 880.579 311.408C885.224 313.66 977.174 362.514 975.711 367.453L975.711 367.479Z" stroke="#0D7377" stroke-opacity="0.3" stroke-width="0.5" stroke-miterlimit="10"/>
<path d="M940.273 394.856C947.486 398.357 942.917 434.278 940.658 441.968C939.169 446.976 929.465 492.503 934.009 495.135C931.852 502.391 946.28 516.673 952.852 520.454C958.217 523.545 976.444 539.718 973.466 545.108C981.219 549.579 962.992 597.432 958.679 605.25C955.83 610.411 919.145 667.665 913.728 665.264C909.621 672.724 874.373 664.318 866.543 660.869C862.564 659.107 820.231 643.139 816.92 645.898C811.169 643.369 769.016 673.874 764.19 677.885C760.519 680.951 703.964 724.205 699.83 721.803C694.516 726.248 671.771 718.073 665.764 714.573C662.76 712.81 638.732 697.021 638.244 693.597C633.88 691.068 630.234 681.794 629.541 676.812C628.257 667.691 616.192 656.756 609.466 663.092C607.617 649.883 582.125 653.154 572.396 662.3C568.057 666.388 547.648 679.264 543.232 675.279C536.968 681.181 527.162 681.257 520.795 675.458C518.587 673.439 517.253 670.629 517.098 667.665C513.89 664.753 510.27 626.353 510.064 622.035C509.936 619.404 506.393 567.182 504.596 565.241C504.417 561.408 472.635 525.027 470.016 522.217C465.113 516.902 422.601 461.053 428.839 457.4C421.753 449.709 457.797 417.39 466.833 412.102C469.272 410.671 521.745 381.137 524.518 381.724C528.06 379.655 588.569 390.769 592.574 391.612C595.885 392.302 680.808 408.602 683.478 406.532C688.252 407.529 731.663 376.18 735.489 373.166C738.929 370.457 799.206 326.258 803.134 328.174C808.088 324.265 861.332 346.084 867.031 348.843C872.011 351.27 941.762 389.568 940.196 394.856L940.273 394.856Z" stroke="#0D7377" stroke-opacity="0.3" stroke-width="0.5" stroke-miterlimit="10"/>
<path d="M906.212 420.847C911.028 423.176 904.675 458.421 903.163 463.566C901.575 468.941 895.99 501.524 900.858 504.339C899.423 509.177 913.565 521.36 917.946 523.869C923.659 527.171 936.57 540.711 933.394 546.521C938.543 549.49 917.946 596.918 915.102 602.14C912.053 607.668 885.077 646.778 879.312 644.219C876.571 649.21 842.601 638.92 837.4 636.617C833.147 634.748 803.122 624.331 799.561 627.3C795.744 625.611 753.37 657.989 750.168 660.676C746.222 663.978 706.513 693.029 702.081 690.444C698.546 693.413 677.282 684.378 673.286 682.049C670.058 680.18 653.252 668.381 652.739 664.695C649.844 663.006 647.154 654.841 646.668 651.513C645.31 641.736 632.782 632.854 625.609 639.637C624.379 630.832 603.602 636.591 597.146 642.708C592.509 647.085 576.19 655.711 571.502 651.411C567.326 655.353 560.819 655.404 556.566 651.539C554.209 649.389 552.774 646.369 552.621 643.169C550.494 641.224 547.394 601.653 547.241 598.787C547.113 595.946 544.32 560.061 542.399 557.962C542.271 555.402 508.915 517.828 507.173 515.934C501.921 510.226 474.15 469.504 480.837 465.588C476.123 460.469 513.936 430.727 519.957 427.195C522.57 425.659 558.641 405.746 561.613 406.36C563.97 404.978 626.967 417.187 629.631 417.776C633.166 418.518 691.065 429.089 693.909 426.836C697.085 427.502 741.483 394.33 744.045 392.308C747.708 389.416 789.698 359.699 793.899 361.747C797.204 359.136 851.388 382.863 855.179 384.706C860.508 387.317 907.929 415.165 906.263 420.873L906.212 420.847Z" stroke="#0D7377" stroke-opacity="0.3" stroke-width="0.5" stroke-miterlimit="10"/>
<path d="M872.681 446.942C875.103 448.12 866.908 482.596 866.135 485.181C864.434 490.914 862.939 510.468 868.145 513.489C867.423 515.92 881.417 525.953 883.634 527.207C889.767 530.739 897.421 541.617 894.019 547.811C896.622 549.296 873.479 596.16 872.036 598.77C868.763 604.683 851.342 625.517 845.131 622.804C843.765 625.287 810.777 613.18 808.174 612.028C803.612 610.032 785.701 605.22 781.887 608.394C779.954 607.549 737.044 641.718 735.421 643.075C731.194 646.581 708.025 661.401 703.283 658.637C701.505 660.121 681.558 650.241 679.548 649.064C676.094 647.068 666.378 639.338 665.837 635.396C664.368 634.552 662.616 627.513 662.384 625.85C660.915 615.407 647.874 608.624 640.143 615.842C639.524 611.44 623.339 619.707 620.066 622.778C615.092 627.436 602.774 631.788 597.722 627.206C595.635 629.177 592.336 629.203 590.223 627.257C587.671 624.954 586.177 621.754 585.996 618.325C584.914 617.352 582.311 576.682 582.259 575.249C582.105 572.229 580.069 552.751 578.007 550.524C577.955 549.244 542.726 510.545 541.849 509.598C536.231 503.532 523.036 478.014 530.175 473.817C527.804 471.257 567.698 444.178 570.714 442.412C573.523 440.774 593.419 430.51 596.614 431.201C597.8 430.51 663.801 443.82 665.141 444.101C668.93 444.895 700.165 449.681 703.206 447.3C704.804 447.633 750.549 412.696 751.837 411.673C755.78 408.576 779.748 393.423 784.258 395.599C785.907 394.294 841.497 419.863 843.378 420.784C849.099 423.549 874.485 440.927 872.681 446.993L872.681 446.942Z" stroke="#0D7377" stroke-opacity="0.3" stroke-width="0.5" stroke-miterlimit="10"/>
<path d="M620.549 593.631L618.476 552.121C618.322 548.916 617.042 545.889 614.866 543.524L578.259 503.947C572.319 497.537 573.855 487.312 581.407 482.886L622.853 458.621C625.823 456.892 629.33 456.307 632.684 457.019L700.856 471.313C704.849 472.153 709.022 471.186 712.248 468.668L758.762 432.169C762.91 428.913 768.593 428.303 773.354 430.617L829.597 457.884C835.638 460.809 838.685 467.651 836.765 474.06L826.832 507.609C825.04 513.663 827.651 520.174 833.155 523.328L846.825 531.188C853.302 534.901 855.606 543.091 852.022 549.628L826.627 595.666C823.197 601.897 815.517 604.492 808.963 601.592L777.425 587.705C772.612 585.593 767.005 586.382 762.986 589.739L720.056 625.501C715.601 629.215 709.278 629.749 704.26 626.824L685.88 616.167C682.219 614.055 679.762 610.393 679.173 606.221L678.354 600.32C676.818 589.307 663.378 584.601 655.237 592.257L643.82 602.991C638.572 607.925 630.38 607.976 625.055 603.144C622.367 600.702 620.78 597.319 620.601 593.707L620.549 593.631Z" stroke="#0D7377" stroke-opacity="0.3" stroke-width="0.5" stroke-miterlimit="10"/>
</svg>
