<svg width="471" height="316" viewBox="0 0 471 316" fill="none" xmlns="http://www.w3.org/2000/svg">
<g clip-path="url(#clip0_177_34)">
<path d="M323.503 56.0634L146.558 175.879L213.63 214.497L323.503 56.0634Z" stroke="#A1A1A1" stroke-width="1.4052" stroke-miterlimit="10"/>
<path d="M345.596 241.914L323.759 55.9933L254.14 310.298L345.596 241.914Z" stroke="#A1A1A1" stroke-width="1.4052" stroke-miterlimit="10"/>
<path d="M413.127 148.386L378.425 21.3449L345.424 241.747L413.127 148.386Z" stroke="#A1A1A1" stroke-width="1.4052" stroke-miterlimit="10"/>
<path d="M378.43 20.2305L210.663 20.2223L324.082 55.9514L378.43 20.2305Z" stroke="#A1A1A1" stroke-width="1.4052" stroke-miterlimit="10"/>
<path d="M86.1878 20.2235L146.325 175.287L210.661 20.2295L86.1878 20.2235Z" stroke="#A1A1A1" stroke-width="1.4052" stroke-miterlimit="10"/>
<path d="M254.101 310.418L214.017 214.438L171.733 238.874L254.101 310.418Z" stroke="#A1A1A1" stroke-width="1.4052" stroke-miterlimit="10"/>
<path d="M146.318 175.287L95.07 213.202L171.734 238.878L146.318 175.287Z" stroke="#A1A1A1" stroke-width="1.4052" stroke-miterlimit="10"/>
<path d="M86.1854 20.2538L20.4787 126.179L95.0744 213.204L86.1854 20.2538Z" stroke="#A1A1A1" stroke-width="1.4052" stroke-miterlimit="10"/>
</g>
<defs>
<clipPath id="clip0_177_34">
<rect width="471" height="316" fill="white"/>
</clipPath>
</defs>
</svg>
