<svg width="160" height="78" viewBox="0 0 160 78" fill="none" xmlns="http://www.w3.org/2000/svg">
<path d="M68 0.5L91.8 43.5L92.5 76L68.21 33.5L68 0.5Z" stroke="#0D7377" stroke-width="2"/>
<path d="M54 74.7045V1H67.9625L68.2246 33.758L68.5521 74.6965C68.5565 75.2519 68.1075 75.7045 67.5521 75.7045H55C54.4477 75.7045 54 75.2568 54 74.7045ZM91.8668 1H105C105.552 1 106 1.44772 106 2V75.7045H92.6354L90.8671 2.024C90.8536 1.46248 91.3051 1 91.8668 1Z" stroke="#14FFEC" stroke-width="2"/>
<path d="M38.9715 68.4348L33.4708 75.3106C33.1254 75.7424 32.495 75.8119 32.0638 75.4656L2.35965 51.612L10.9986 44.7109L38.8165 67.0301C39.2468 67.3754 39.3162 68.0039 38.9715 68.4348Z" stroke="#0D7377" stroke-width="2"/>
<path d="M33.9426 14.2567L39.0367 21.0488C39.3608 21.481 39.2831 22.0924 38.8612 22.4298L2.36175 51.6159L1 50.5209V39.4783L32.5151 14.0781C32.9557 13.723 33.603 13.804 33.9426 14.2567Z" stroke="#14FFEC" stroke-width="2"/>
<path d="M121.028 21.0652L126.529 14.1893C126.875 13.7575 127.505 13.688 127.936 14.0343L157.64 37.8879L149.001 44.789L121.184 22.4698C120.753 22.1246 120.684 21.496 121.028 21.0652Z" stroke="#0D7377" stroke-width="2"/>
<path d="M126.057 75.2432L120.963 68.4511C120.639 68.019 120.717 67.4075 121.139 67.0701L157.638 37.8841L159 38.9791V50.0216L127.485 75.4218C127.044 75.777 126.397 75.696 126.057 75.2432Z" stroke="#14FFEC" stroke-width="2"/>
</svg>
