<svg width="200" height="200" viewBox="0 0 200 200" fill="none" xmlns="http://www.w3.org/2000/svg">
<circle cx="100.5" cy="98.5" r="87.5" fill="#212121"/>
<path d="M146.748 73.5646L141.255 80.4317C140.563 81.2968 140.706 82.5596 141.574 83.248L169 105L179.677 99.2167C180.305 98.8763 180.384 98.0053 179.827 97.5577L149.562 73.2546C148.7 72.5621 147.439 72.701 146.748 73.5646Z" fill="#0D7377"/>
<path d="M141.163 129.051L146.257 135.843C146.937 136.749 148.231 136.911 149.112 136.2L181 110.5V98.5L178.64 96.6023L141.514 126.289C140.67 126.964 140.515 128.187 141.163 129.051Z" fill="#14FFEC"/>
<path d="M89.9546 60L112.045 103.568L112.659 136.705L89.9546 93.75V60Z" fill="#0D7377"/>
<path d="M89.9545 60H74V134.705C74 135.809 74.8954 136.705 76 136.705H88.5521C89.6629 136.705 90.5609 135.799 90.5521 134.689L90.2245 93.75L89.9545 60Z" fill="#14FFEC"/>
<path d="M126 60H112.867C111.743 60 110.84 60.925 110.867 62.048L112.659 136.705H128V62C128 60.8954 127.105 60 126 60Z" fill="#14FFEC"/>
<path d="M55.2517 135.935L60.7453 129.068C61.4374 128.203 61.2944 126.94 60.4264 126.252L33 104.5L22.3232 110.283C21.6947 110.624 21.616 111.495 22.1734 111.942L52.4377 136.245C53.3001 136.938 54.5608 136.799 55.2517 135.935Z" fill="#0D7377"/>
<path d="M60.8367 80.4489L55.7426 73.6568C55.0634 72.7513 53.7688 72.5893 52.8875 73.2996L21 99V111L23.36 112.898L60.4857 83.2109C61.3295 82.5361 61.4849 81.3132 60.8367 80.4489Z" fill="#14FFEC"/>
</svg>
